<?xml version="1.0" encoding="utf-8"?>
<!DOCTYPE svg PUBLIC "-//W3C//DTD SVG 1.0//EN" "http://www.w3.org/TR/2001/REC-SVG-20010904/DTD/svg10.dtd">
<svg version="1.0" xmlns="http://www.w3.org/2000/svg" width="1024px" height="1024px" viewBox="0 0 1024 1024" preserveAspectRatio="xMidYMid meet">
 <g fill="#99353d">
  <path d="M737.30 813.95 c-0.70 -2.30 0.20 -3.95 2.20 -3.95 1.80 0 1.95 -0.25 1.25 -2.35 -0.55 -1.55 -1.05 -1.95 -4.30 -3.30 -8 -3.35 -11.85 -10.70 -9.75 -18.80 2 -7.85 8.60 -12.50 17.05 -11.95 4.05 0.25 9.35 2.45 9.65 4 0.10 0.45 -0.55 1.60 -1.40 2.55 l-1.55 1.80 -2.75 -1.50 c-4.35 -2.25 -7.85 -1.85 -11.65 1.35 -3.40 2.85 -4.50 8.15 -2.55 12.40 1.10 2.50 4.55 5.10 7.45 5.60 2.15 0.45 6.40 -0.40 9.25 -1.80 1.15 -0.55 2.25 -1 2.40 -1 0.40 0 1.90 3.80 1.90 4.80 0 0.90 -2.70 2.10 -6.75 2.90 -2.35 0.50 -3.05 0.85 -3.15 1.65 -0.10 0.55 0.20 1.30 0.65 1.65 0.40 0.35 0.75 1.40 0.75 2.50 0 1.50 -0.30 2.05 -1.30 2.75 -1.75 1.15 -7.10 1.65 -7.40 0.70z"/>
  <path d="M596 806.05 c-3.30 -0.65 -7.05 -3.15 -9.30 -6.15 -2.55 -3.45 -3.40 -6.70 -3.10 -11.60 0.40 -6.20 3.45 -10.50 9.30 -13.20 5 -2.25 14.50 -1.25 17.30 1.85 0.85 0.90 0.80 1.05 -0.50 3 -0.70 1.15 -1.60 2.05 -1.90 2.05 -0.30 0 -1.65 -0.55 -3 -1.25 -2.60 -1.30 -6.20 -1.65 -8.45 -0.80 -0.70 0.25 -2.10 1.25 -3.10 2.15 -5.05 4.40 -4.95 11.60 0.25 16.05 3.40 2.90 8.05 3.15 12.90 0.70 2.70 -1.35 2.95 -1.30 4.25 0.80 1.15 1.80 0.90 2.50 -1.65 4.10 -3.60 2.25 -8.60 3.15 -13 2.30z"/>
  <path d="M209.25 805.15 c-2.45 -1 -5.75 -3.50 -5.75 -4.35 0 -0.30 0.65 -1.35 1.45 -2.30 1.10 -1.35 1.65 -1.65 2.20 -1.25 0.40 0.30 1.60 1.10 2.65 1.85 2.70 1.90 5.50 2.25 7.60 0.90 2 -1.25 2.85 -3.15 2 -4.65 -0.85 -1.65 -1.75 -2.20 -6 -3.60 -4.65 -1.60 -7.75 -3.70 -8.70 -6 -3.10 -7.50 4.75 -13.95 14.05 -11.50 2.70 0.70 6.25 2.80 6.25 3.65 0 0.20 -0.70 1.15 -1.50 2.10 l-1.45 1.75 -2.45 -1.35 c-4.40 -2.45 -9.10 -1.45 -9.10 1.90 0 1.85 1.95 3.30 6.05 4.65 5.20 1.65 7.40 2.95 8.50 5.15 2.15 4.25 0.50 9.55 -3.75 12.15 -2.10 1.25 -3.05 1.50 -6.25 1.60 -2.65 0.10 -4.40 -0.10 -5.80 -0.70z"/>
  <path d="M242.25 805.20 c-2.35 -0.85 -5 -3.25 -6.25 -5.70 -1.65 -3.20 -2.05 -6.90 -1.90 -16.25 l0.15 -9 2.90 -0.15 c1.55 -0.10 2.85 0.05 2.85 0.25 0 0.20 0.05 5 0.15 10.65 0.10 8.80 0.25 10.50 1 11.90 1.85 3.40 6.40 4.60 9.75 2.60 2.75 -1.70 3.10 -3.25 3.20 -14.35 0.05 -5.45 0.30 -10.20 0.55 -10.50 0.55 -0.80 2.80 -0.85 4.60 -0.15 l1.35 0.50 -0.20 10.15 c-0.30 11.75 -0.75 13.60 -4.20 17.05 -3.55 3.55 -9.15 4.75 -13.95 3z"/>
  <path d="M274 804.95 c-2.75 -1.25 -5.50 -3.30 -5.50 -4.10 0 -0.75 2.75 -3.85 3.40 -3.85 0.25 0 0.85 0.45 1.30 0.95 1.50 1.65 5.25 3.15 7.10 2.85 2.45 -0.50 4.20 -2.10 4.20 -3.95 0 -2.25 -1.65 -3.65 -6.10 -5.15 -7.05 -2.35 -9.90 -5.60 -9.15 -10.60 0.40 -2.55 2.60 -5.30 5.20 -6.45 2.75 -1.25 8.25 -1.10 11.40 0.30 1.40 0.65 2.95 1.55 3.40 2.10 0.80 0.85 0.80 1 -0.70 2.90 l-1.60 2 -2.35 -1.45 c-2.25 -1.40 -3.60 -1.75 -5.90 -1.60 -1.50 0.15 -3.20 1.95 -3.20 3.40 0 1.85 1.95 3.30 6.05 4.65 7.50 2.35 9.20 4.05 9.20 9.10 0 2.70 -0.25 3.60 -1.35 5.30 -2.85 4.30 -10.15 6 -15.40 3.60z"/>
  <path d="M306.75 804.95 c-2.80 -1.40 -5 -3.70 -6.35 -6.65 -1.05 -2.35 -1.15 -3.40 -1.30 -12.70 -0.15 -7.45 -0.05 -10.35 0.40 -10.85 0.90 -1.05 5.30 -1 5.70 0.05 0.15 0.45 0.30 5.15 0.30 10.50 0 10.95 0.35 12.50 3.10 14.20 3.40 2.05 8.25 0.70 9.70 -2.75 0.55 -1.30 0.70 -4.15 0.70 -11.95 0 -11.20 -0.10 -10.80 3.20 -10.80 3.40 0 3.45 0.10 3.20 11.80 -0.20 10.10 -0.25 10.55 -1.50 12.95 -1.60 3.10 -3.45 4.90 -6.40 6.20 -3 1.40 -8 1.40 -10.75 0z"/>
  <path d="M412.50 805.55 c-4.50 -1.40 -8.35 -4.75 -10.45 -9.05 -1.75 -3.75 -1.85 -9.50 -0.15 -13.30 1.30 -2.90 4.40 -6.15 7.35 -7.65 7.20 -3.70 16.75 -1.35 21.25 5.20 7.25 10.55 -0.75 25.40 -13.65 25.20 -1.70 0 -3.65 -0.20 -4.35 -0.40z m9.25 -6.70 c2.85 -1.60 4.75 -4.55 5.10 -8 0.25 -2.40 0.10 -3.20 -1.10 -5.60 -1.75 -3.65 -4.25 -5.35 -8.20 -5.65 -6.05 -0.45 -10.55 3.95 -10.55 10.25 0 6.10 3.90 10.15 9.75 10.15 2.20 0 3.55 -0.30 5 -1.15z"/>
  <path d="M445.50 804.95 c-2.35 -1.05 -5 -3.25 -5 -4.15 0 -0.30 0.70 -1.30 1.55 -2.25 l1.55 -1.65 1.30 1.05 c2.45 1.95 5.60 3.20 7.50 2.85 4.20 -0.65 5.50 -4.90 2.20 -7.15 -0.90 -0.60 -3.10 -1.55 -4.85 -2.15 -5.50 -1.85 -8.10 -4.20 -8.60 -7.90 -0.35 -2.65 0.05 -4.15 1.65 -6.10 3.35 -4 10.05 -4.95 15.55 -2.20 3.50 1.75 3.85 2.85 1.65 4.95 -1.40 1.35 -1.65 1.40 -2.65 0.75 -2.50 -1.55 -3.70 -2 -5.60 -2 -2.65 0 -4.25 1.15 -4.25 2.95 0 2.30 1.45 3.45 6.15 5.05 5.55 1.85 7 2.70 8.30 5 2.70 4.80 0.20 10.95 -5.40 13.30 -2.55 1.05 -8.35 0.90 -11.05 -0.35z"/>
  <path d="M536.15 805.10 c-5.95 -2.15 -10.10 -7.80 -10.55 -14.40 -0.45 -6.85 2.65 -12.30 8.75 -15.30 3 -1.45 3.85 -1.65 7.40 -1.65 6.50 0.05 11.55 2.95 14.50 8.35 2 3.70 2.35 9.35 0.75 13.55 -1.30 3.50 -4.85 7.25 -8.30 8.85 -3.45 1.55 -9.05 1.85 -12.55 0.60z m10.85 -6.55 c3.25 -1.95 5.25 -6.05 4.75 -9.80 -1.05 -8.50 -10.45 -12.20 -16.65 -6.55 -4.40 3.95 -4.10 12.60 0.50 15.90 3.80 2.70 7.45 2.85 11.40 0.45z"/>
  <path d="M628.15 805.05 c-6.90 -2.35 -10.95 -8.60 -10.55 -16.20 0.20 -4.40 1.50 -7.30 4.75 -10.50 7.65 -7.70 21.70 -5 26.30 5.05 1.65 3.60 1.55 9.45 -0.30 13.15 -3.70 7.60 -12.35 11.25 -20.20 8.50z m9.90 -5.85 c2 -1 4.90 -4.65 5.25 -6.55 0.95 -5.10 -1.15 -9.80 -5.30 -12.05 -1.80 -0.95 -2.80 -1.15 -5.10 -1 -3.90 0.30 -6.40 2 -8.15 5.65 -1.20 2.40 -1.35 3.15 -1.05 5.60 0.85 7.25 8.15 11.50 14.35 8.35z"/>
  <path d="M807.25 804.85 c-2.05 -0.75 -3.80 -1.90 -5.65 -3.70 -3.55 -3.55 -4.75 -6.35 -4.75 -11.40 -0.05 -5.10 1.25 -8.25 4.70 -11.50 3.60 -3.40 6.30 -4.40 11.70 -4.45 4.20 -0.05 4.70 0.05 7.65 1.65 3.45 1.85 5.50 4 7.25 7.55 1.65 3.35 1.55 10.25 -0.15 13.75 -3.70 7.50 -12.85 11.05 -20.75 8.10z m10.15 -5.80 c3.65 -1.90 5.60 -5.10 5.60 -9.30 0 -3.40 -1.25 -6.05 -3.80 -8.15 -6.25 -5.15 -15.35 -0.90 -15.80 7.40 -0.15 3.30 0.10 4.35 1.60 6.60 2.70 4.10 8.20 5.60 12.40 3.45z"/>
  <path d="M335.75 804.85 c-0.15 -0.35 -0.20 -7.25 -0.15 -15.35 l0.15 -14.75 8 0 c8.65 0 9.70 0.25 12.50 3.05 1.75 1.75 2.25 3.20 2.25 6.40 0 2.10 -0.30 3.10 -1.60 5 -0.85 1.30 -2.10 2.65 -2.75 2.95 -0.60 0.25 -1.15 0.70 -1.15 0.90 0 0.60 5.20 9.45 6.20 10.50 1.25 1.40 0.75 1.70 -2.85 1.70 l-3.10 0 -2 -3.10 c-1.10 -1.70 -2.65 -4.20 -3.50 -5.50 -1.45 -2.30 -1.60 -2.40 -3.75 -2.40 l-2.20 0 -0.10 5.10 c-0.10 2.85 -0.25 5.35 -0.45 5.65 -0.45 0.75 -5.25 0.65 -5.50 -0.15z m13.75 -16.75 c2.30 -1.15 3.40 -3.10 2.75 -4.90 -0.80 -2.25 -2.75 -3.30 -6.70 -3.60 l-3.55 -0.25 0 4.85 0 4.80 2.90 0 c1.70 0 3.55 -0.35 4.60 -0.90z"/>
  <path d="M369.70 805.15 c-0.40 -0.30 -0.55 -4.70 -0.50 -15.40 l0.05 -15 8 0 c7.35 0 8.15 0.10 10.10 1.15 1.20 0.60 2.75 2 3.45 3.10 2.55 3.80 1.35 9.95 -2.40 12.55 -0.90 0.60 -1.75 1.20 -1.85 1.25 -0.10 0.10 1.45 2.80 3.40 6 4.05 6.55 4.05 6.80 -0.45 6.60 -2.70 -0.15 -2.80 -0.20 -4.25 -2.55 -5.60 -8.95 -5.30 -8.60 -7.75 -8.60 l-2.25 0 -0.25 5.50 -0.25 5.50 -2.25 0.15 c-1.25 0.05 -2.50 -0.05 -2.80 -0.25z m14.80 -17.90 c2.55 -2.45 1.70 -6.25 -1.60 -6.95 -2.20 -0.45 -7.40 -0.60 -7.45 -0.20 0 0.20 0 2.20 0 4.40 0 2.20 0 4.15 0 4.30 0.05 0.15 1.75 0.20 3.80 0.10 3.30 -0.15 3.85 -0.35 5.25 -1.65z"/>
  <path d="M490.10 790.15 l0.15 -15.40 8.25 0 c7.95 0 8.35 0.05 10.75 1.35 3 1.55 5.20 3.85 6.80 6.90 1 1.85 1.20 3 1.20 6.50 0 5.30 -1.20 8.25 -4.85 11.60 -3.65 3.45 -7.05 4.40 -15.70 4.40 l-6.70 0 0.10 -15.35z m13.95 9.35 c4.45 -1.25 7.45 -5.05 7.45 -9.50 0 -6.40 -6.40 -11.25 -13.75 -10.40 l-1.50 0.15 -0.15 10.15 -0.10 10.10 3.10 0 c1.75 0 3.95 -0.25 4.95 -0.50z"/>
  <path d="M659.35 805.20 c-0.20 -0.20 -0.35 -7.20 -0.35 -15.60 l0 -15.20 7.90 0.20 c7 0.15 8.10 0.30 9.95 1.30 5.95 3.15 6.70 10.90 1.55 15.30 l-2 1.75 3.10 5.15 c1.75 2.85 3.50 5.40 3.90 5.75 1.25 1.05 0.10 1.65 -3.10 1.65 -3.70 0 -3.55 0.15 -7.55 -6.60 l-2.85 -4.90 -2.45 0 -2.40 0 -0.15 5.65 -0.15 5.60 -2.50 0.15 c-1.40 0.10 -2.70 0 -2.90 -0.20z m13.40 -17.20 c2.55 -1.25 3.45 -2.85 2.70 -5 -0.75 -2.05 -2.60 -2.90 -6.75 -3.05 l-3.45 -0.15 -0.15 4.60 -0.15 4.60 2.85 0 c1.85 0 3.60 -0.35 4.95 -1z"/>
  <path d="M692.40 805.15 c-0.50 -0.10 -0.90 -0.40 -0.90 -0.65 0 -0.25 0.90 -2.75 1.95 -5.60 3.55 -9.25 8.55 -22.95 8.55 -23.40 0 -0.90 2.25 -2 4.05 -2 1.05 0 2.25 0.40 2.85 0.90 0.55 0.45 2.65 5.30 4.75 10.85 2.10 5.50 4.60 12.10 5.60 14.70 1 2.55 1.65 4.80 1.50 5 -0.20 0.15 -1.70 0.30 -3.35 0.30 l-3.05 0 -0.70 -2.75 c-0.35 -1.50 -0.85 -2.90 -1.10 -3.15 -0.20 -0.20 -3.25 -0.30 -6.80 -0.25 l-6.40 0.15 -0.85 3 -0.85 3 -2.20 0.10 c-1.20 0 -2.60 -0.05 -3.05 -0.20z m18.10 -11.75 c0 -0.10 -0.90 -2.80 -1.95 -6.05 -1.85 -5.70 -2.45 -6.65 -3.15 -5.25 -0.35 0.80 -3.40 10.60 -3.40 11.05 0 0.20 1.90 0.35 4.25 0.35 2.35 0 4.25 -0.05 4.25 -0.10z"/>
  <path d="M761.65 805.10 c-0.75 -0.50 9.90 -30.05 11.20 -30.95 0.90 -0.70 5.05 -0.85 5.95 -0.25 0.30 0.20 1.75 3.50 3.20 7.35 1.45 3.85 4.05 10.70 5.85 15.15 1.75 4.50 3.10 8.30 2.95 8.50 -0.15 0.15 -1.50 0.35 -3 0.50 -3.05 0.25 -3.15 0.15 -4.35 -3.65 l-0.80 -2.50 -6.70 -0.15 -6.70 -0.10 -1 3.10 -1 3.15 -2.50 0.15 c-1.35 0.05 -2.75 -0.05 -3.10 -0.30z m18.35 -12.20 c0 -1.10 -3.35 -10.95 -3.90 -11.50 -0.30 -0.30 -1.10 1.35 -2.35 5.20 -1.05 3.10 -2 5.95 -2.15 6.30 -0.15 0.45 0.85 0.60 4.10 0.60 3.10 0 4.30 -0.15 4.30 -0.60z"/>
  <path d="M769.50 769.05 c-0.85 -1.60 -0.60 -2.35 1.35 -4.05 1.60 -1.40 2.05 -1.60 3.85 -1.35 1.45 0.20 2.40 0.70 3.15 1.70 0.95 1.15 1.30 1.30 2 0.85 0.50 -0.30 1.10 -1.05 1.40 -1.65 0.95 -2.10 3.15 -0.30 2.55 2.10 -0.40 1.60 -2.05 2.80 -4.40 3.20 -1.45 0.20 -2.05 0 -3.50 -1.30 -2.25 -1.95 -3.35 -1.95 -4.05 -0.05 -0.65 1.70 -1.60 1.95 -2.35 0.55z"/>
  <path d="M275.20 737.50 c-29.25 -3.70 -49.50 -19 -57.65 -43.45 -2.90 -8.75 -3.75 -14.65 -3.75 -25.30 0 -10.50 0.80 -15.65 3.75 -24.60 3.40 -10.35 7.90 -17.70 15.60 -25.60 10.75 -11.05 25.10 -18.45 41.35 -21.35 13 -2.35 28.55 -0.85 46.50 4.40 7.85 2.30 7.90 2.30 7.65 5.50 -0.15 1.65 0.45 6.55 1.55 13.15 2.05 12.05 2.20 14.25 0.90 15.40 -1.05 0.95 -4.60 1.15 -6.10 0.35 -0.55 -0.30 -1.30 -1.70 -1.75 -3.35 -5.60 -19.25 -22.65 -30.15 -42.40 -27.10 -13.10 2.05 -24.20 10.70 -30.95 24.20 -8.35 16.60 -10.15 41.30 -4.40 60.70 5.70 19.15 18.20 32.50 34.25 36.55 7.20 1.80 18.45 1.20 24.80 -1.35 10.15 -4 17.85 -12.55 22.15 -24.65 0.75 -2.05 1.65 -3.90 1.95 -4.10 1.30 -0.85 4.30 -0.40 5.70 0.80 l1.40 1.20 -1.65 8.20 c-3.70 18.45 -4.40 21.40 -5.10 22.10 -1.60 1.55 -15.60 5.50 -26 7.30 -7.05 1.20 -21.80 1.75 -27.80 1z"/>
  <path d="M400.10 737.40 c-6.15 -0.75 -14.80 -3.20 -19.85 -5.55 -11.60 -5.55 -19.45 -14.40 -23.10 -26.10 l-1.40 -4.50 -0.25 -43.50 c-0.25 -39.15 -0.35 -43.70 -1.10 -45.25 -1.65 -3.55 -4.45 -5.15 -10.15 -5.95 -2.20 -0.30 -4.15 -0.75 -4.40 -1 -0.80 -0.80 -0.95 -4.25 -0.20 -5.25 0.70 -0.95 1.70 -0.95 27.60 -1 14.75 -0.05 27.05 0.10 27.35 0.25 0.25 0.15 0.60 1.25 0.75 2.35 0.45 3.20 -0.65 4.45 -4.20 4.85 -6.30 0.70 -9 2.60 -10.40 7.50 -0.70 2.30 -0.75 7.65 -0.65 42.05 l0.15 39.45 1.40 4.50 c3.65 11.65 10.85 20.20 20.30 24 6.50 2.65 17 3.50 24.40 1.95 13.95 -2.85 23.60 -11.15 28.20 -24.20 2.65 -7.50 2.70 -8.30 2.70 -48.75 l0 -37.50 -1.30 -2.50 c-0.75 -1.35 -1.75 -2.90 -2.30 -3.35 -1.70 -1.55 -5.35 -2.80 -9.05 -3.20 -2.85 -0.25 -3.80 -0.55 -4.35 -1.40 -0.85 -1.15 -0.95 -3.20 -0.30 -4.95 l0.45 -1.20 22.65 0.20 c15.75 0.10 22.80 0.30 23.25 0.70 0.95 0.75 0.90 4.70 0 5.60 -0.45 0.45 -2.35 0.85 -4.65 1.10 -6.60 0.60 -9.80 3.05 -11.70 9 -0.50 1.50 -0.70 11.65 -0.95 41.75 -0.25 36.60 -0.35 40 -1.20 43 -5.25 18.35 -17.55 30.05 -37.30 35.30 -7.35 2 -21.50 2.75 -30.40 1.60z"/>
  <path d="M552.50 737.45 c-12.90 -1.45 -25.20 -5.90 -34.95 -12.60 -4.95 -3.40 -12.35 -10.80 -15.60 -15.65 -7.60 -11.30 -11.45 -24.30 -11.45 -38.70 0.05 -30.70 14.35 -54.55 40.25 -67 18.65 -8.95 43.75 -9.95 62.55 -2.50 23.35 9.30 38.60 27.40 43.05 51.25 1.30 7 1.20 21.85 -0.25 29 -2 10.20 -5.20 18.10 -10.40 25.80 -6.40 9.50 -16.30 17.95 -26.95 22.95 -13.85 6.45 -30.85 9.20 -46.25 7.45z m24.60 -10.60 c15.95 -4.55 27.15 -18.80 31.40 -40.15 1.35 -6.55 1.85 -21.45 1.05 -28.70 -3.20 -28 -17.80 -47.60 -38.55 -51.80 -4.60 -0.90 -14.40 -0.75 -18.25 0.30 -16.15 4.45 -27.80 18.15 -32.45 38.05 -2 8.60 -2.40 13.35 -2.20 24.70 0.25 11.90 1.20 17.45 4.25 25.75 6.40 17.05 18.60 28.90 33.30 32.25 4.25 0.95 17.50 0.70 21.45 -0.40z"/>
  <path d="M759.50 736 c-11.70 -1.15 -19.50 -4.65 -26.95 -12.05 -3.50 -3.45 -6.35 -7.35 -10.55 -14.45 -14.85 -25.15 -18.25 -30.65 -19.20 -31.25 -0.90 -0.60 -7.85 -1 -13.25 -0.80 -0.60 0.05 -0.65 2.60 -0.35 16.20 0.35 16.35 0.85 23.10 1.80 26.45 1.20 4.20 5.10 6.85 10.05 6.90 4.40 0 5.80 0.70 6.20 3 0.20 1.25 0.10 2.45 -0.35 3.35 l-0.65 1.35 -29.15 0.05 c-32.70 0 -30.10 0.35 -30.10 -3.70 0 -3.15 1.20 -4.05 5.40 -4.05 4.75 0 7 -0.75 9.40 -3.20 1.60 -1.55 2.20 -2.70 2.65 -4.70 0.75 -3.60 0.80 -102 0 -104.75 -0.65 -2.50 -3.20 -5.30 -5.75 -6.40 -1.15 -0.50 -4 -1.10 -6.35 -1.25 -3.85 -0.30 -4.30 -0.45 -4.80 -1.55 -0.75 -1.65 -0.70 -3.75 0.15 -4.90 0.65 -0.90 1.85 -0.95 25.10 -1.15 43.30 -0.35 42.70 -0.35 49.45 1.05 20.30 4.25 32.25 16.80 32.25 33.90 0 14.80 -6.70 25.40 -20.35 32.15 -2.40 1.20 -5.25 2.45 -6.25 2.80 -1.05 0.30 -1.90 0.75 -1.90 1 0 0.50 18.15 30.70 22.25 37 7.70 11.90 14.30 18 21.35 19.80 1.80 0.45 3.85 0.65 4.95 0.50 2.50 -0.40 3.45 0.90 3.45 4.55 0 2.20 -0.20 2.75 -1.15 3.35 -1.40 0.95 -11.35 1.40 -17.35 0.80z m-54.75 -69.30 c5.60 -1.10 11.40 -4.25 15.50 -8.40 4.10 -4.15 5.90 -7.25 7.25 -12.60 1.20 -4.70 1.30 -12.55 0.25 -17.15 -2.45 -10.20 -9.05 -17 -19.05 -19.55 -6 -1.55 -15.55 -1.15 -18.55 0.80 l-1.15 0.70 0 28.45 c0 22.35 0.15 28.50 0.65 28.70 1.15 0.40 11.65 -0.25 15.10 -0.95z"/>
  <path d="M788.75 735.15 c-2.15 -0.55 -2.85 -1.75 -2.60 -4.30 0.10 -1.35 0.45 -2.65 0.75 -2.95 0.30 -0.30 2.55 -0.70 5 -0.90 4.90 -0.40 6.05 -0.85 8.50 -3.15 3.40 -3.25 3.30 -1.55 3.50 -52.50 0.20 -50.45 0 -56 -2.10 -59.55 -1.85 -3.20 -3.90 -4.25 -9.40 -4.90 -2.55 -0.30 -4.90 -0.70 -5.20 -0.95 -0.90 -0.75 -1.20 -3.25 -0.65 -4.95 0.30 -0.80 0.70 -1.50 0.85 -1.55 0.20 -0.05 12.45 -0.10 27.30 -0.15 26.30 -0.05 26.95 -0.05 27.60 0.95 0.90 1.25 0.90 3.80 0 5 -0.45 0.65 -1.65 1.05 -4.05 1.30 -5.75 0.70 -8.50 2.85 -9.75 7.50 -0.35 1.25 -0.50 19.70 -0.40 54.05 0.15 48.15 0.20 52.25 1 53.70 1.90 3.45 5.30 5.20 10.20 5.20 3.05 0 3.70 0.60 4.05 3.70 0.50 4.35 2.50 4.05 -25.70 4.10 -13.70 0 -25.55 0.15 -26.40 0.30 -0.80 0.20 -1.95 0.20 -2.50 0.05z"/>
  <path d="M481.20 578.45 c-4.65 -4.80 -15 -13.30 -23.75 -19.55 -10.50 -7.55 -22.70 -14.75 -35.95 -21.40 -13.15 -6.50 -20 -9.45 -32 -13.80 -45.30 -16.20 -72.25 -31.45 -92 -52.05 -12.40 -12.90 -19.70 -26.20 -23.05 -41.90 -1 -4.65 -0.90 -19.10 0.15 -23.85 3.60 -16.10 13.10 -28.50 27.30 -35.65 13 -6.50 30.65 -8 47.35 -4 6.15 1.45 13 3.55 19.30 5.95 2.65 1 5 1.80 5.15 1.80 0.15 0 0.30 -1.40 0.30 -3.15 0 -1.70 0.30 -5.70 0.70 -8.85 2.40 -19.35 9.05 -34.25 20.10 -45.30 14.65 -14.60 35.10 -21.20 55.15 -17.75 15.30 2.60 28.50 9.25 38.90 19.60 12.95 12.90 20.15 30.45 21.65 52.60 1 15.10 -1.70 34.10 -9.25 65.10 -7.30 29.90 -9 37.20 -11.20 47.50 -5 23.25 -7.35 41.40 -7.90 60.75 -0.30 11.05 0.35 26 1.40 32.95 0.25 1.75 0.40 3.25 0.30 3.35 -0.10 0.10 -1.25 -0.95 -2.65 -2.35z m-171.60 -119.55 c-2.15 -3.20 -5.30 -9.20 -6.85 -13.15 -8.35 -21.10 -5.60 -38.15 8.35 -52.20 6.35 -6.45 15.05 -12.05 22.55 -14.60 3.20 -1.10 4.30 -1.95 2.50 -1.95 -0.50 0 -3.15 0.45 -5.90 1 -17.80 3.60 -30.45 12.60 -36.75 26.15 -6.10 13.10 -3.85 29.05 6.30 44.10 3.35 4.95 10.85 14.05 11.10 13.35 0.10 -0.30 -0.50 -1.55 -1.30 -2.70z m90.40 -114.05 c1.65 -3.45 5.85 -8.65 9.40 -11.60 3.80 -3.15 10.85 -6.85 15.35 -8 8.95 -2.30 21.80 -1.60 32.30 1.80 4.80 1.55 13.15 5.65 16.65 8.15 1.65 1.20 4.40 3.50 6 5 3.25 3.05 4.45 3.60 3 1.45 -2.80 -4.35 -13.20 -14.45 -18.45 -17.90 -4.55 -3.05 -11.40 -6.25 -16.20 -7.60 -3.80 -1.05 -14.25 -1.45 -18.20 -0.65 -13.80 2.70 -25.30 12.70 -30.30 26.40 -0.85 2.30 -1.55 4.50 -1.55 4.90 0 1.20 0.95 0.30 2 -1.95z"/>
  <path d="M509 563.30 c0 -0.55 5.30 -7.60 9.30 -12.35 13.50 -15.95 32.40 -27.15 57.20 -33.90 18.85 -5.10 35.75 -7.40 71.25 -9.55 26.95 -1.65 42.50 -3.40 60 -6.70 29.35 -5.55 51.75 -15.90 68.15 -31.45 4.65 -4.40 4.60 -4.20 -0.20 1.65 -11.60 14.10 -27.60 24.15 -50.20 31.40 -16.95 5.50 -41.05 9.25 -70.50 11.10 -13.80 0.85 -27.75 2 -38 3.05 -43.90 4.50 -72.30 14.30 -92.25 31.70 -5.40 4.75 -7.70 7.15 -14.35 15 -0.20 0.25 -0.40 0.30 -0.40 0.05z"/>
  <path d="M509.20 504.15 c0.15 -0.50 1.05 -5.15 2.05 -10.40 7.15 -38.20 18.30 -79.65 33.65 -125.25 19.80 -58.70 39.45 -96.55 62.60 -120.65 19.95 -20.75 42.80 -31.50 62.30 -29.30 11.25 1.25 20.25 5.90 29.45 15.15 13.65 13.75 21.75 33.95 21.75 54.15 0 9.15 -2.05 22.65 -5.35 34.80 -0.70 2.65 -1.20 4.95 -1.10 5.05 0.10 0.10 1.20 0 2.45 -0.20 1.25 -0.25 5.50 -0.45 9.50 -0.50 6.50 0 8.25 0.20 17.20 2 14.90 3 23 6.05 31.75 11.85 21.65 14.45 31.45 40.80 24.80 66.90 -3.40 13.30 -12.80 27.10 -25 36.80 -15.30 12.10 -36.25 20.40 -61.50 24.40 -13.85 2.20 -29.25 3.05 -65.25 3.80 -49.75 1 -80.15 5.80 -109.75 17.40 -7.25 2.85 -22.55 10.35 -26.65 13.10 -3.10 2 -3.25 2.05 -2.90 0.90z m246.05 -72.05 c16.50 -11.35 24.05 -20.55 27.85 -33.95 1.55 -5.55 1.55 -15.10 -0.10 -21.15 -2.95 -11 -9.55 -19.55 -20.40 -26.35 -6.85 -4.35 -9.25 -4.90 -4.25 -1 7.15 5.55 12.30 13.30 14.75 22.15 1.60 5.95 1.60 18.05 -0.05 24.70 -3.20 12.80 -9.55 24.05 -19.30 34.25 -2.05 2.15 -3.75 4.10 -3.75 4.35 0 0.55 0.20 0.45 5.25 -3z m-150.05 -142.60 c3.80 -5.15 14.75 -16.40 20.30 -20.80 8.25 -6.60 15.55 -11.10 23.25 -14.45 6.90 -2.95 10.70 -3.85 17.80 -4.10 5.35 -0.25 6.90 -0.10 10.70 0.85 8.45 2.10 15.55 6.35 22.45 13.30 2.35 2.40 4.30 4.10 4.30 3.80 0 -2.10 -5.75 -12.20 -9.45 -16.60 -8.30 -9.85 -17.60 -14.60 -28.55 -14.60 -12.80 -0.05 -25.15 6.20 -38.30 19.30 -7.95 8 -14.40 16.50 -21.60 28.65 -6.10 10.20 -6.50 12.20 -0.90 4.65z"/>
  <path d="M270 479.80 c-1.25 -0.90 -4.30 -3.80 -6.75 -6.40 -15.70 -16.55 -24.25 -38.30 -24.25 -61.30 0 -14.45 2.85 -26.65 9.05 -38.55 3.75 -7.35 6.85 -11.50 13.20 -17.80 10 -10 22.45 -16.65 35.90 -19.30 5.20 -1 16.25 -1.30 20.10 -0.50 l2 0.45 -2.75 0.05 c-20.15 0.40 -41.05 11.95 -54.55 30.05 -7.50 10.10 -12.30 20.75 -14.70 32.75 -1.05 5.15 -1.25 7.50 -1.25 14.80 0 14.15 1.95 24.50 7 37.20 3.30 8.35 10.45 20.45 14.90 25.15 5.50 5.80 5.65 6.05 2.10 3.40z"/>
  <path d="M530 318 c0 -0.90 -11.30 -11.65 -17.75 -16.85 -3.55 -2.85 -9.55 -7.15 -13.25 -9.50 -12.25 -7.80 -15.20 -9.75 -21.50 -14.30 -19.55 -14.15 -29.80 -24.50 -35.20 -35.60 -1.25 -2.45 -2.60 -6.05 -3.10 -8 -1.05 -4.20 -1.15 -11 -0.25 -14.75 2.10 -8.75 8.55 -16.05 16.85 -19.10 2.35 -0.85 4.10 -1.05 8.95 -1.10 7.10 -0.05 9.85 0.55 16 3.45 5 2.35 10.05 5.80 14.35 9.70 1.55 1.40 3 2.55 3.25 2.55 0.25 0 1 -1.85 1.65 -4.10 4.25 -15 14.85 -30.25 24.25 -34.85 10.80 -5.30 23.90 -1.80 30.35 8.15 3.75 5.80 5.40 14.40 4.40 22.95 -1.10 9.55 -3.80 20.05 -11.25 43.85 -9.90 31.70 -16.65 58 -16.85 65.60 0 1.30 -0.25 2.40 -0.45 2.40 -0.25 0 -0.45 -0.20 -0.45 -0.50z m-52.50 -54.75 c0 -0.15 -3.05 -3.25 -6.80 -6.90 -13.90 -13.45 -18.45 -20.90 -19.05 -31.35 -0.40 -6.60 1.20 -11.80 4.80 -15.95 1.05 -1.25 1.35 -2.05 0.70 -2.05 -0.75 0.05 -5.05 4.25 -6.55 6.40 -3.85 5.45 -4.75 14.45 -2.05 20.90 3.05 7.30 10.75 15.85 21.95 24.45 5.80 4.40 7 5.15 7 4.50z m72 -66.60 c-2.85 -8.85 -7.40 -13.25 -14.50 -14 -3.35 -0.35 -4.25 0.50 -1.10 1.10 5.45 0.95 10.25 4.85 13.10 10.60 0.90 1.85 1.90 3.70 2.15 4.05 0.85 1.05 1 0.25 0.35 -1.75z"/>
  <path d="M571.15 171.10 c-3.75 -7.80 -9.95 -13.90 -18.40 -18.05 -6.55 -3.25 -10.95 -4.25 -18.50 -4.25 -7.80 -0.05 -10.95 0.70 -17.70 4.05 -5.30 2.65 -11.20 7.90 -14.05 12.55 -0.85 1.40 -1.70 2.60 -1.80 2.60 -0.45 0 1.65 -4.50 3.65 -7.85 5.75 -9.50 16.05 -16.50 27.15 -18.45 18.30 -3.20 34.80 7.25 40.05 25.40 2.60 9.05 2.50 10.05 -0.40 4z"/>
 </g>
 <g fill="#fff4f9">
 </g>
</svg>